<?xml version="1.0" encoding="UTF-8" standalone="no"?>
<svg xmlns="http://www.w3.org/2000/svg" viewBox="0 0 232 232" version="1.1"  >
  <g
    stroke="#60d9fa"
    stroke-width="10"
    fill="none"
    transform="translate(116,116)"
  >
    <ellipse rx="110" ry="42" cx="0" cy="0"  />
    <ellipse  
      rx="110"
      ry="42"
      transform="rotate(60)"
      cx="0"
      cy="0"
      id="ellipse1829"
    />
    <ellipse
      rx="110"
      ry="42"
      transform="rotate(120)"
      cx="0"
      cy="0"
    />
  </g>
  <g
    transform="matrix(3.6533417,0,0,3.6527469,87,87)"
    fill="#60d9fa"
  >
  <path
    d="m 9.0917969,1.2207031 -4.0019531,13.0078129 -0.00195,0.0098 c -0.1996817,0.612486 0.1917039,1.034843 0.6386719,1.150391 0.446968,0.115548 0.9908077,-0.04958 1.1757813,-0.591794 l 0.00195,-0.0098 L 10.90625,1.7792969 C 11.059193,1.2833399 10.90792,0.80380505 10.31836,0.59570313 9.7069334,0.40189349 9.2262416,0.78294192 9.0917969,1.2207031 Z M 3.828125,3.828125 l -3.5,3.5 c -0.36832734,0.3673974 -0.36832734,0.9763526 0,1.34375 l 3.5,3.5 c 0.439729,0.404017 1.0328433,0.304671 1.34375,0 0.3109067,-0.304671 0.3041572,-1.009629 0,-1.34375 L 2.34375,8 5.171875,5.171875 c 0.4486304,-0.4209328 0.2938516,-1.0651319 0,-1.34375 -0.2938516,-0.2786181 -0.8873202,-0.3854287 -1.34375,0 z m 7,0 c -0.376127,0.3452772 -0.44863,0.9228172 0,1.34375 L 13.65625,8 10.828125,10.828125 c -0.444169,0.359426 -0.333847,1.035527 0,1.34375 0.333847,0.308223 0.898075,0.359997 1.34375,0 l 3.5,-3.5 c 0.368327,-0.3673974 0.368327,-0.9763526 0,-1.34375 l -3.5,-3.5 c -0.534761,-0.4124567 -0.967623,-0.3452772 -1.34375,0 z"
    />
  </g>
</svg>